<svg width="327" height="35" viewBox="0 0 327 35" fill="none" xmlns="http://www.w3.org/2000/svg">
<path opacity="0.7" d="M0.44 28.27C0.44 30.1 1.51 31.14 3.25 31.14C4.91 31.14 5.91 30.17 5.91 28.64V28.42H4.92V28.65C4.92 29.59 4.37 30.26 3.25 30.26C2.12 30.26 1.43 29.51 1.43 28.29V26.71C1.43 25.49 2.11 24.74 3.25 24.74C4.34 24.74 4.92 25.42 4.92 26.36V26.53H5.91V26.37C5.91 24.84 4.95 23.86 3.25 23.86C1.53 23.86 0.44 24.9 0.44 26.73V28.27ZM10.4026 24L8.24258 31H9.26258L9.78258 29.3H12.5426L13.0626 31H14.0926L11.9326 24H10.4026ZM10.0326 28.4L11.1126 24.86H11.2126L12.2926 28.4H10.0326ZM15.7416 24V24.89H18.0016V31H18.9916V24.89H21.2516V24H15.7416ZM24.0726 24V31H28.5926V30.11H25.0626V27.93H28.2626V27.03H25.0626V24.89H28.5426V24H24.0726ZM31.3892 28.27C31.3892 30.1 32.4692 31.14 34.1992 31.14C35.8592 31.14 36.8392 30.17 36.8392 28.56V27.61H33.8992V28.46H35.8692V28.65C35.8692 29.65 35.3192 30.26 34.1992 30.26C33.0692 30.26 32.3792 29.51 32.3792 28.29V26.71C32.3792 25.49 33.0692 24.74 34.2092 24.74C35.2892 24.74 35.8092 25.39 35.8092 26.32V26.43H36.7992V26.33C36.7992 24.84 35.9092 23.86 34.2092 23.86C32.4892 23.86 31.3892 24.9 31.3892 26.73V28.27ZM39.7271 26.69V28.31C39.7271 30.15 40.8171 31.14 42.5171 31.14C44.2171 31.14 45.3071 30.15 45.3071 28.31V26.69C45.3071 24.85 44.2171 23.86 42.5171 23.86C40.8171 23.86 39.7271 24.85 39.7271 26.69ZM40.7171 26.65C40.7171 25.47 41.3871 24.74 42.5171 24.74C43.6471 24.74 44.3171 25.47 44.3171 26.65V28.35C44.3171 29.53 43.6471 30.26 42.5171 30.26C41.3871 30.26 40.7171 29.53 40.7171 28.35V26.65ZM53.582 26.1C53.582 24.8 52.652 24 51.372 24H48.432V31H49.422V28.2H50.892L52.322 31H53.452L51.922 28.15C52.892 27.95 53.582 27.2 53.582 26.1ZM49.422 24.89H51.272C52.092 24.89 52.592 25.35 52.592 26.1C52.592 26.86 52.092 27.32 51.272 27.32H49.422V24.89ZM55.8866 24L58.3866 28.39V31H59.3766V28.39L61.8766 24H60.7466L58.9366 27.31H58.8366L57.0166 24H55.8866Z" fill="#282828"/>
<path opacity="0.3" d="M147.574 24V24.89H149.834V31H150.824V24.89H153.084V24H147.574ZM155.905 24V31H160.425V30.11H156.895V27.93H160.095V27.03H156.895V24.89H160.375V24H155.905ZM165.041 24L162.881 31H163.901L164.421 29.3H167.181L167.701 31H168.731L166.571 24H165.041ZM164.671 28.4L165.751 24.86H165.851L166.931 28.4H164.671ZM171.516 24V31H172.486V25.03H172.586L174.506 31H175.906L177.816 25.03H177.916V31H178.886V24H177.176L175.256 29.99H175.156L173.226 24H171.516Z" fill="#282828"/>
<path opacity="0.3" d="M294.534 24V31H295.524V28.26H297.274C298.534 28.26 299.484 27.45 299.484 26.13C299.484 24.82 298.554 24 297.274 24H294.534ZM295.524 24.89H297.174C297.994 24.89 298.494 25.36 298.494 26.13C298.494 26.9 297.994 27.37 297.174 27.37H295.524V24.89ZM302.383 24V31H306.863V30.11H303.373V24H302.383ZM311.285 24L309.125 31H310.145L310.665 29.3H313.425L313.945 31H314.975L312.815 24H311.285ZM310.915 28.4L311.995 24.86H312.095L313.175 28.4H310.915ZM316.359 24L318.859 28.39V31H319.849V28.39L322.349 24H321.219L319.409 27.31H319.309L317.489 24H316.359ZM325.212 24L325.312 29.02H326.112L326.222 24H325.212ZM324.932 30.36C324.932 30.81 325.272 31.14 325.712 31.14C326.162 31.14 326.492 30.81 326.492 30.36C326.492 29.91 326.162 29.58 325.712 29.58C325.272 29.58 324.932 29.91 324.932 30.36Z" fill="#282828"/>
<rect y="7" width="327" height="2" fill="#D2C9BA"/>
<circle cx="8" cy="8" r="8" fill="#D90368"/>
<circle cx="164" cy="8" r="3" fill="#F1E9DA" stroke="#D2C9BA" stroke-width="2"/>
<circle cx="323" cy="8" r="3" fill="#F1E9DA" stroke="#D2C9BA" stroke-width="2"/>
</svg>
