<svg width="560" height="880" viewBox="0 0 560 880" fill="none" xmlns="http://www.w3.org/2000/svg">
<g clip-path="url(#clip0)">
<rect width="560" height="880" rx="30" fill="white"/>
<g clip-path="url(#clip1)">
<path d="M3.46186 -81C25.6401 -9.28153 75.0791 43.9289 131.449 90.6616C163.33 117.036 198.445 139.708 231.713 164.694C274.221 196.62 291.317 241.502 279.303 288.234C267.29 334.504 229.402 367.356 180.888 373.834C134.683 379.849 90.7886 355.789 65.3761 312.758C54.749 295.175 43.1979 278.518 23.3299 267.876C42.2738 346.072 89.8645 401.133 165.178 439.537C54.749 439.537 -50.5975 439.537 -147.627 439.537C-124.525 419.641 -94.954 396.506 -68.6174 369.67C-41.3566 341.908 -24.723 307.668 -13.6339 269.264C-36.2741 276.204 -42.2807 282.219 -59.3764 312.758C-100.499 386.327 -198.452 396.043 -251.126 331.728C-293.172 279.906 -282.545 206.799 -228.485 165.156C-186.439 132.767 -144.393 99.9156 -104.195 64.7504C-81.5546 44.8543 -61.2246 20.794 -43.2048 -3.72913C-25.6471 -27.7895 -11.7857 -55.0888 3.46186 -81Z" fill="#282828"/>
</g>
<path d="M560.086 712.318C579.99 699.379 608.226 688.751 627.205 674.426C644.331 661.487 658.681 645.314 676.271 632.838C720.245 602.34 775.791 608.809 809.582 647.163C842.446 684.592 841.984 740.506 809.119 777.473C774.865 815.827 719.782 821.834 675.808 790.412C657.292 777.011 641.554 759.451 623.039 746.051C605.449 733.112 581.379 721.098 560.086 712.318C566.104 822.296 616.558 906.859 719.319 960C611.467 960 509.169 960 401.317 960C503.614 907.321 551.292 818.599 560.086 712.318C561.938 714.166 558.235 710.007 560.086 712.318C541.571 723.408 516.112 732.65 498.523 745.126C480.47 758.065 465.658 775.163 448.068 788.563C403.631 821.834 347.622 817.675 312.443 779.321C277.263 741.43 277.263 683.668 311.98 645.776C347.159 607.423 403.168 602.802 447.605 636.072C464.732 649.011 479.081 665.184 496.671 677.661C514.261 691.061 541.108 700.303 560.086 712.318C557.309 715.09 562.864 709.545 560.086 712.318C544.811 685.516 535.553 663.798 521.204 644.39C505.929 623.596 486.488 605.112 473.527 582.932C452.234 545.964 459.64 500.679 488.339 470.181C514.724 441.993 562.864 431.827 598.506 447.076C637.388 463.711 664.236 502.527 657.292 544.116C653.589 567.682 643.406 593.098 627.205 612.043C617.484 623.596 607.301 631.913 596.654 646.7C581.842 667.033 573.047 687.827 560.086 712.318C557.309 709.083 562.864 715.09 560.086 712.318Z" fill="#282828"/>
<path d="M-260 700.963C-117.658 671.35 -31.2368 583.9 0.189266 440C31.1532 582.974 117.575 670.887 265 701.888C118.961 733.352 31.6153 820.339 1.11357 961C-8.59154 933.238 -16.4481 901.312 -31.2368 873.55C-46.4877 844.4 -65.8979 816.175 -89.0053 793.04C-112.113 769.905 -140.304 750.009 -169.419 734.74C-198.072 719.008 -230.885 711.142 -260 700.963Z" fill="#FF3C00"/>
<path d="M559.431 38.8357C563.6 25.4353 566.379 15.7315 569.621 6.48987C596.484 -62.3606 672.441 -97.4789 742.378 -73.4506C812.778 -48.9601 852.146 26.8215 825.746 97.5203C813.704 130.328 791.936 160.826 770.631 189.475C753.031 213.503 730.799 234.297 709.031 254.629C652.063 308.692 596.021 363.68 559.894 439C520.989 356.287 454.758 299.913 395.011 238.456C362.127 204.724 330.632 167.757 306.085 127.556C268.569 64.7124 282.927 -6.44846 334.8 -49.4222C407.979 -110.417 521.916 -78.0714 552.021 12.497C554.336 19.4282 556.189 26.8215 559.431 38.8357Z" fill="#FF3C00"/>
<rect x="475" width="85" height="81" fill="#FF3C00"/>
</g>
<defs>
<clipPath id="clip0">
<rect width="560" height="880" rx="30" fill="white"/>
</clipPath>
<clipPath id="clip1">
<rect width="560" height="521" fill="white" transform="translate(-277 -81)"/>
</clipPath>
</defs>
</svg>
