<svg width="560" height="880" viewBox="0 0 560 880" fill="none" xmlns="http://www.w3.org/2000/svg">
<rect width="560" height="880" rx="30" fill="white"/>
<path d="M339.213 432.931C343.513 430.131 349.613 427.831 353.713 424.731C357.413 421.931 360.513 418.431 364.313 415.731C373.813 409.131 385.813 410.531 393.113 418.831C400.213 426.931 400.113 439.031 393.013 447.031C385.613 455.331 373.713 456.631 364.213 449.831C360.213 446.931 356.813 443.131 352.813 440.231C349.013 437.431 343.813 434.831 339.213 432.931C340.513 456.731 351.413 475.031 373.613 486.531C350.313 486.531 328.213 486.531 304.913 486.531C327.013 475.131 337.313 455.931 339.213 432.931C339.613 433.331 338.813 432.431 339.213 432.931C335.213 435.331 329.713 437.331 325.913 440.031C322.013 442.831 318.813 446.531 315.013 449.431C305.413 456.631 293.313 455.731 285.713 447.431C278.113 439.231 278.113 426.731 285.613 418.531C293.213 410.231 305.313 409.231 314.913 416.431C318.613 419.231 321.713 422.731 325.513 425.431C329.313 428.331 335.113 430.331 339.213 432.931C338.613 433.531 339.813 432.331 339.213 432.931C335.913 427.131 333.913 422.431 330.813 418.231C327.513 413.731 323.313 409.731 320.513 404.931C315.913 396.931 317.513 387.131 323.713 380.531C329.413 374.431 339.813 372.231 347.513 375.531C355.913 379.131 361.713 387.531 360.213 396.531C359.413 401.631 357.213 407.131 353.713 411.231C351.613 413.731 349.413 415.531 347.113 418.731C343.913 423.131 342.013 427.631 339.213 432.931C338.613 432.231 339.813 433.531 339.213 432.931Z" fill="#282828"/>
<path d="M212.764 374.902C186.545 374.902 169.746 390.445 169.746 419.49V444.61C169.746 471.3 183.876 486.529 206.484 488.884V499.246C206.484 507.41 211.351 512.277 219.044 512.277H233.802V501.758H223.44C220.614 501.758 219.044 500.188 219.044 497.048V488.884C241.652 486.529 255.782 471.3 255.782 444.61V419.49C255.782 390.445 238.983 374.902 212.764 374.902ZM242.908 445.238C242.908 465.491 231.761 477.737 212.764 477.737C193.61 477.737 182.463 465.491 182.463 445.238V418.862C182.463 398.609 193.61 386.206 212.764 386.206C231.761 386.206 242.908 398.609 242.908 418.862V445.238Z" fill="#282828"/>
</svg>
