<svg width="560" height="880" viewBox="0 0 560 880" fill="none" xmlns="http://www.w3.org/2000/svg">
<rect width="560" height="880" rx="30" fill="white"/>
<path d="M336.213 432.931C340.513 430.131 346.613 427.831 350.713 424.731C354.413 421.931 357.513 418.431 361.313 415.731C370.813 409.131 382.813 410.531 390.113 418.831C397.213 426.931 397.113 439.031 390.013 447.031C382.613 455.331 370.713 456.631 361.213 449.831C357.213 446.931 353.813 443.131 349.813 440.231C346.013 437.431 340.813 434.831 336.213 432.931C337.513 456.731 348.413 475.031 370.613 486.531C347.313 486.531 325.213 486.531 301.913 486.531C324.013 475.131 334.313 455.931 336.213 432.931C335.813 432.431 336.613 433.331 336.213 432.931C332.213 435.331 326.713 437.331 322.913 440.031C319.013 442.831 315.813 446.531 312.013 449.431C302.413 456.631 290.313 455.731 282.713 447.431C275.113 439.231 275.113 426.731 282.613 418.531C290.213 410.231 302.313 409.231 311.913 416.431C315.613 419.231 318.713 422.731 322.513 425.431C326.313 428.331 332.113 430.331 336.213 432.931C336.813 432.331 335.613 433.531 336.213 432.931C332.913 427.131 330.913 422.431 327.813 418.231C324.513 413.731 320.313 409.731 317.513 404.931C312.913 396.931 314.513 387.131 320.713 380.531C326.413 374.431 336.813 372.231 344.513 375.531C352.913 379.131 358.713 387.531 357.213 396.531C356.413 401.631 354.213 407.131 350.713 411.231C348.613 413.731 346.413 415.531 344.113 418.731C340.913 423.131 339.013 427.631 336.213 432.931C336.813 433.531 335.613 432.231 336.213 432.931Z" fill="#282828"/>
<path d="M203.625 377.1L167.986 487H181.331L190.28 459.054H236.438L245.387 487H258.732L223.093 377.1H203.625ZM193.734 447.593L212.574 388.875H214.144L232.984 447.593H193.734Z" fill="#282828"/>
</svg>
