<svg width="560" height="880" viewBox="0 0 560 880" fill="none" xmlns="http://www.w3.org/2000/svg">
<rect width="560" height="880" rx="30" fill="white"/>
<path d="M334.213 432.931C338.513 430.131 344.613 427.831 348.713 424.731C352.413 421.931 355.513 418.431 359.313 415.731C368.813 409.131 380.813 410.531 388.113 418.831C395.213 426.931 395.113 439.031 388.013 447.031C380.613 455.331 368.713 456.631 359.213 449.831C355.213 446.931 351.813 443.131 347.813 440.231C344.013 437.431 338.813 434.831 334.213 432.931C335.513 456.731 346.413 475.031 368.613 486.531C345.313 486.531 323.213 486.531 299.913 486.531C322.013 475.131 332.313 455.931 334.213 432.931C334.613 433.331 333.813 432.431 334.213 432.931C330.213 435.331 324.713 437.331 320.913 440.031C317.013 442.831 313.813 446.531 310.013 449.431C300.413 456.631 288.313 455.731 280.713 447.431C273.113 439.231 273.113 426.731 280.613 418.531C288.213 410.231 300.313 409.231 309.913 416.431C313.613 419.231 316.713 422.731 320.513 425.431C324.313 428.331 330.113 430.331 334.213 432.931C333.613 433.531 334.813 432.331 334.213 432.931C330.913 427.131 328.913 422.431 325.813 418.231C322.513 413.731 318.313 409.731 315.513 404.931C310.913 396.931 312.513 387.131 318.713 380.531C324.413 374.431 334.813 372.231 342.513 375.531C350.913 379.131 356.713 387.531 355.213 396.531C354.413 401.631 352.213 407.131 348.713 411.231C346.613 413.731 344.413 415.531 342.113 418.731C338.913 423.131 337.013 427.631 334.213 432.931C333.613 432.231 334.813 433.531 334.213 432.931Z" fill="#282828"/>
<path d="M174.993 412.739V416.507H187.71V413.367C187.71 395.626 199.014 386.206 214.714 386.206C229.786 386.206 239.991 395.155 239.991 410.227C239.991 425.142 229.158 432.678 211.103 437.231C189.437 442.569 174.522 451.047 174.522 473.498V487H252.865V475.539H187.553V472.242C187.553 456.228 198.229 452.303 217.226 447.279C239.677 441.47 252.865 430.794 252.865 410.384C252.865 388.875 236.537 374.902 214.714 374.902C192.577 374.902 174.993 388.561 174.993 412.739Z" fill="#282828"/>
</svg>
