<svg width="560" height="880" viewBox="0 0 560 880" fill="none" xmlns="http://www.w3.org/2000/svg">
<rect width="560" height="880" rx="30" fill="white"/>
<path d="M337.213 432.931C341.513 430.131 347.613 427.831 351.713 424.731C355.413 421.931 358.513 418.431 362.313 415.731C371.813 409.131 383.813 410.531 391.113 418.831C398.213 426.931 398.113 439.031 391.013 447.031C383.613 455.331 371.713 456.631 362.213 449.831C358.213 446.931 354.813 443.131 350.813 440.231C347.013 437.431 341.813 434.831 337.213 432.931C338.513 456.731 349.413 475.031 371.613 486.531C348.313 486.531 326.213 486.531 302.913 486.531C325.013 475.131 335.313 455.931 337.213 432.931C336.813 432.431 337.613 433.331 337.213 432.931C333.213 435.331 327.713 437.331 323.913 440.031C320.013 442.831 316.813 446.531 313.013 449.431C303.413 456.631 291.313 455.731 283.713 447.431C276.113 439.231 276.113 426.731 283.613 418.531C291.213 410.231 303.313 409.231 312.913 416.431C316.613 419.231 319.713 422.731 323.513 425.431C327.313 428.331 333.113 430.331 337.213 432.931C337.813 432.331 336.613 433.531 337.213 432.931C333.913 427.131 331.913 422.431 328.813 418.231C325.513 413.731 321.313 409.731 318.513 404.931C313.913 396.931 315.513 387.131 321.713 380.531C327.413 374.431 337.813 372.231 345.513 375.531C353.913 379.131 359.713 387.531 358.213 396.531C357.413 401.631 355.213 407.131 351.713 411.231C349.613 413.731 347.413 415.531 345.113 418.731C341.913 423.131 340.013 427.631 337.213 432.931C337.813 433.531 336.613 432.231 337.213 432.931Z" fill="#282828"/>
<path d="M262.796 377.1H244.584L189.32 430.166H187.75V377.1H175.033V487H187.75V447.593L205.962 430.48L245.526 487H261.54L214.911 422.002L262.796 377.1Z" fill="#282828"/>
</svg>
