<svg width="560" height="880" viewBox="0 0 560 880" fill="none" xmlns="http://www.w3.org/2000/svg">
<rect width="560" height="880" rx="30" fill="white"/>
<path d="M368.213 432.931C372.513 430.131 378.613 427.831 382.713 424.731C386.413 421.931 389.513 418.431 393.313 415.731C402.813 409.131 414.813 410.531 422.113 418.831C429.213 426.931 429.113 439.031 422.013 447.031C414.613 455.331 402.713 456.631 393.213 449.831C389.213 446.931 385.813 443.131 381.813 440.231C378.013 437.431 372.813 434.831 368.213 432.931C369.513 456.731 380.413 475.031 402.613 486.531C379.313 486.531 357.213 486.531 333.913 486.531C356.013 475.131 366.313 455.931 368.213 432.931C368.613 433.331 367.813 432.431 368.213 432.931C364.213 435.331 358.713 437.331 354.913 440.031C351.013 442.831 347.813 446.531 344.013 449.431C334.413 456.631 322.313 455.731 314.713 447.431C307.113 439.231 307.113 426.731 314.613 418.531C322.213 410.231 334.313 409.231 343.913 416.431C347.613 419.231 350.713 422.731 354.513 425.431C358.313 428.331 364.113 430.331 368.213 432.931C367.613 433.531 368.813 432.331 368.213 432.931C364.913 427.131 362.913 422.431 359.813 418.231C356.513 413.731 352.313 409.731 349.513 404.931C344.913 396.931 346.513 387.131 352.713 380.531C358.413 374.431 368.813 372.231 376.513 375.531C384.913 379.131 390.713 387.531 389.213 396.531C388.413 401.631 386.213 407.131 382.713 411.231C380.613 413.731 378.413 415.531 376.113 418.731C372.913 423.131 371.013 427.631 368.213 432.931C367.613 432.231 368.813 433.531 368.213 432.931Z" fill="#282828"/>
<path d="M164.805 377.1L134.033 424.671H148.32L170.143 390.916H172.027V487H184.744L184.901 377.1H164.805ZM204.726 419.647V444.453C204.726 473.812 219.798 489.198 244.761 489.198C269.724 489.198 284.796 473.812 284.796 444.453V419.647C284.796 390.602 269.724 374.902 244.761 374.902C219.798 374.902 204.726 390.602 204.726 419.647ZM217.443 418.862C217.443 398.766 226.863 386.206 244.761 386.206C262.659 386.206 272.079 398.609 272.079 418.862V445.238C272.079 465.334 263.287 477.737 244.761 477.737C226.549 477.737 217.443 465.648 217.443 445.238V418.862Z" fill="#282828"/>
</svg>
