<svg width="560" height="880" viewBox="0 0 560 880" fill="none" xmlns="http://www.w3.org/2000/svg">
<rect width="560" height="880" rx="30" fill="white"/>
<path d="M330.213 432.931C334.513 430.131 340.613 427.831 344.713 424.731C348.413 421.931 351.513 418.431 355.313 415.731C364.813 409.131 376.813 410.531 384.113 418.831C391.213 426.931 391.113 439.031 384.013 447.031C376.613 455.331 364.713 456.631 355.213 449.831C351.213 446.931 347.813 443.131 343.813 440.231C340.013 437.431 334.813 434.831 330.213 432.931C331.513 456.731 342.413 475.031 364.613 486.531C341.313 486.531 319.213 486.531 295.913 486.531C318.013 475.131 328.313 455.931 330.213 432.931C330.613 433.331 329.813 432.431 330.213 432.931C326.213 435.331 320.713 437.331 316.913 440.031C313.013 442.831 309.813 446.531 306.013 449.431C296.413 456.631 284.313 455.731 276.713 447.431C269.113 439.231 269.113 426.731 276.613 418.531C284.213 410.231 296.313 409.231 305.913 416.431C309.613 419.231 312.713 422.731 316.513 425.431C320.313 428.331 326.113 430.331 330.213 432.931C329.613 433.531 330.813 432.331 330.213 432.931C326.913 427.131 324.913 422.431 321.813 418.231C318.513 413.731 314.313 409.731 311.513 404.931C306.913 396.931 308.513 387.131 314.713 380.531C320.413 374.431 330.813 372.231 338.513 375.531C346.913 379.131 352.713 387.531 351.213 396.531C350.413 401.631 348.213 407.131 344.713 411.231C342.613 413.731 340.413 415.531 338.113 418.731C334.913 423.131 333.013 427.631 330.213 432.931C329.613 432.231 330.813 433.531 330.213 432.931Z" fill="#282828"/>
<path d="M172.102 377.1V388.718H238.199L191.256 487H205.543L252.8 388.09V377.1H172.102Z" fill="#282828"/>
</svg>
