<svg width="560" height="880" viewBox="0 0 560 880" fill="none" xmlns="http://www.w3.org/2000/svg">
<rect width="560" height="880" rx="30" fill="white"/>
<path d="M335.213 432.931C339.513 430.131 345.613 427.831 349.713 424.731C353.413 421.931 356.513 418.431 360.313 415.731C369.813 409.131 381.813 410.531 389.113 418.831C396.213 426.931 396.113 439.031 389.013 447.031C381.613 455.331 369.713 456.631 360.213 449.831C356.213 446.931 352.813 443.131 348.813 440.231C345.013 437.431 339.813 434.831 335.213 432.931C336.513 456.731 347.413 475.031 369.613 486.531C346.313 486.531 324.213 486.531 300.913 486.531C323.013 475.131 333.313 455.931 335.213 432.931C335.613 433.331 334.813 432.431 335.213 432.931C331.213 435.331 325.713 437.331 321.913 440.031C318.013 442.831 314.813 446.531 311.013 449.431C301.413 456.631 289.313 455.731 281.713 447.431C274.113 439.231 274.113 426.731 281.613 418.531C289.213 410.231 301.313 409.231 310.913 416.431C314.613 419.231 317.713 422.731 321.513 425.431C325.313 428.331 331.113 430.331 335.213 432.931C334.613 433.531 335.813 432.331 335.213 432.931C331.913 427.131 329.913 422.431 326.813 418.231C323.513 413.731 319.313 409.731 316.513 404.931C311.913 396.931 313.513 387.131 319.713 380.531C325.413 374.431 335.813 372.231 343.513 375.531C351.913 379.131 357.713 387.531 356.213 396.531C355.413 401.631 353.213 407.131 349.713 411.231C347.613 413.731 345.413 415.531 343.113 418.731C339.913 423.131 338.013 427.631 335.213 432.931C334.613 432.231 335.813 433.531 335.213 432.931Z" fill="#282828"/>
<path d="M218.759 377.1L168.676 453.716V464.706H226.766V487H239.64V464.706H258.48V453.245H239.64V377.1H218.759ZM224.882 388.718H226.766V453.245H182.335L224.882 388.718Z" fill="#282828"/>
</svg>
