<svg width="560" height="880" viewBox="0 0 560 880" fill="none" xmlns="http://www.w3.org/2000/svg">
<rect width="560" height="880" rx="30" fill="white"/>
<path d="M333.213 432.931C337.513 430.131 343.613 427.831 347.713 424.731C351.413 421.931 354.513 418.431 358.313 415.731C367.813 409.131 379.813 410.531 387.113 418.831C394.213 426.931 394.113 439.031 387.013 447.031C379.613 455.331 367.713 456.631 358.213 449.831C354.213 446.931 350.813 443.131 346.813 440.231C343.013 437.431 337.813 434.831 333.213 432.931C334.513 456.731 345.413 475.031 367.613 486.531C344.313 486.531 322.213 486.531 298.913 486.531C321.013 475.131 331.313 455.931 333.213 432.931C333.613 433.331 332.813 432.431 333.213 432.931C329.213 435.331 323.713 437.331 319.913 440.031C316.013 442.831 312.813 446.531 309.013 449.431C299.413 456.631 287.313 455.731 279.713 447.431C272.113 439.231 272.113 426.731 279.613 418.531C287.213 410.231 299.313 409.231 308.913 416.431C312.613 419.231 315.713 422.731 319.513 425.431C323.313 428.331 329.113 430.331 333.213 432.931C332.613 433.531 333.813 432.331 333.213 432.931C329.913 427.131 327.913 422.431 324.813 418.231C321.513 413.731 317.313 409.731 314.513 404.931C309.913 396.931 311.513 387.131 317.713 380.531C323.413 374.431 333.813 372.231 341.513 375.531C349.913 379.131 355.713 387.531 354.213 396.531C353.413 401.631 351.213 407.131 347.713 411.231C345.613 413.731 343.413 415.531 341.113 418.731C337.913 423.131 336.013 427.631 333.213 432.931C332.613 432.231 333.813 433.531 333.213 432.931Z" fill="#282828"/>
<path d="M174.927 404.418C174.927 418.862 185.446 426.241 194.081 429.224V431.108C185.446 432.835 172.886 440.999 172.886 457.798C172.886 476.638 189.214 489.198 212.607 489.198C236.157 489.198 252.328 476.638 252.328 457.798C252.328 440.999 239.925 432.835 231.133 431.108V429.224C239.925 426.241 250.444 418.862 250.444 404.418C250.444 387.305 235.529 374.902 212.607 374.902C189.685 374.902 174.927 387.305 174.927 404.418ZM187.644 405.517C187.644 393.271 198.32 386.206 212.607 386.206C226.894 386.206 237.57 393.271 237.57 405.517C237.57 417.763 226.894 424.671 212.607 424.671C198.32 424.671 187.644 417.763 187.644 405.517ZM185.76 456.856C185.76 443.354 196.593 435.975 212.607 435.975C228.621 435.975 239.611 443.354 239.611 456.856C239.611 470.515 228.621 477.737 212.607 477.737C196.593 477.737 185.76 470.515 185.76 456.856Z" fill="#282828"/>
</svg>
