<svg width="560" height="880" viewBox="0 0 560 880" fill="none" xmlns="http://www.w3.org/2000/svg">
<rect width="560" height="880" rx="30" fill="white"/>
<g clip-path="url(#clip0)">
<path d="M312 430.4C342.8 424 361.5 405.1 368.3 374C375 404.9 393.7 423.9 425.6 430.6C394 437.4 375.1 456.2 368.5 486.6C366.4 480.6 364.7 473.7 361.5 467.7C358.2 461.4 354 455.3 349 450.3C344 445.3 337.9 441 331.6 437.7C325.4 434.3 318.3 432.6 312 430.4Z" fill="#FF3C00"/>
</g>
<path d="M167.805 377.1L137.033 424.671H151.32L173.143 390.916H175.027V487H187.744L187.901 377.1H167.805ZM207.726 419.647V444.453C207.726 473.812 222.798 489.198 247.761 489.198C272.724 489.198 287.796 473.812 287.796 444.453V419.647C287.796 390.602 272.724 374.902 247.761 374.902C222.798 374.902 207.726 390.602 207.726 419.647ZM220.443 418.862C220.443 398.766 229.863 386.206 247.761 386.206C265.659 386.206 275.079 398.609 275.079 418.862V445.238C275.079 465.334 266.287 477.737 247.761 477.737C229.549 477.737 220.443 465.648 220.443 445.238V418.862Z" fill="#FF3C00"/>
<defs>
<clipPath id="clip0">
<rect width="113.6" height="112.6" fill="white" transform="translate(312 374)"/>
</clipPath>
</defs>
</svg>
