<svg width="560" height="880" viewBox="0 0 560 880" fill="none" xmlns="http://www.w3.org/2000/svg">
<rect width="560" height="880" rx="30" fill="white"/>
<g clip-path="url(#clip0)">
<path d="M277 430.4C307.8 424 326.5 405.1 333.3 374C340 404.9 358.7 423.9 390.6 430.6C359 437.4 340.1 456.2 333.5 486.6C331.4 480.6 329.7 473.7 326.5 467.7C323.2 461.4 319 455.3 314 450.3C309 445.3 302.9 441 296.6 437.7C290.4 434.3 283.3 432.6 277 430.4Z" fill="#FF3C00"/>
</g>
<path d="M180.432 377.1V436.132H198.487C201.156 430.951 206.494 423.886 218.583 423.886C232.87 423.886 242.133 433.777 242.133 449.791C242.133 467.218 232.556 477.737 215.914 477.737C200.057 477.737 189.381 468.631 189.381 451.204V448.221H176.821V452.146C176.821 474.44 192.678 489.198 216.228 489.198C239.935 489.198 255.164 472.713 255.164 449.477C255.164 426.869 240.249 413.053 221.723 413.053C205.395 413.053 198.33 421.531 195.033 427.811H193.149V388.561H252.338V377.1H180.432Z" fill="#FF3C00"/>
<defs>
<clipPath id="clip0">
<rect width="113.6" height="112.6" fill="white" transform="translate(277 374)"/>
</clipPath>
</defs>
</svg>
