<svg width="560" height="880" viewBox="0 0 560 880" fill="none" xmlns="http://www.w3.org/2000/svg">
<rect width="560" height="880" rx="30" fill="white"/>
<g clip-path="url(#clip0)">
<path d="M278 430.4C308.8 424 327.5 405.1 334.3 374C341 404.9 359.7 423.9 391.6 430.6C360 437.4 341.1 456.2 334.5 486.6C332.4 480.6 330.7 473.7 327.5 467.7C324.2 461.4 320 455.3 315 450.3C310 445.3 303.9 441 297.6 437.7C291.4 434.3 284.3 432.6 278 430.4Z" fill="#FF3C00"/>
</g>
<path d="M220.759 377.1L170.676 453.716V464.706H228.766V487H241.64V464.706H260.48V453.245H241.64V377.1H220.759ZM226.882 388.718H228.766V453.245H184.335L226.882 388.718Z" fill="#FF3C00"/>
<defs>
<clipPath id="clip0">
<rect width="113.6" height="112.6" fill="white" transform="translate(278 374)"/>
</clipPath>
</defs>
</svg>
