<svg width="560" height="880" viewBox="0 0 560 880" fill="none" xmlns="http://www.w3.org/2000/svg">
<rect width="560" height="880" rx="30" fill="white"/>
<g clip-path="url(#clip0)">
<path d="M278 430.4C308.8 424 327.5 405.1 334.3 374C341 404.9 359.7 423.9 391.6 430.6C360 437.4 341.1 456.2 334.5 486.6C332.4 480.6 330.7 473.7 327.5 467.7C324.2 461.4 320 455.3 315 450.3C310 445.3 303.9 441 297.6 437.7C291.4 434.3 284.3 432.6 278 430.4Z" fill="#FF3C00"/>
</g>
<path d="M175.981 412.896C175.981 435.033 191.681 450.105 211.62 450.105C227.634 450.105 235.641 442.412 239.095 436.289H240.979V451.675C240.979 468.16 231.088 477.737 214.132 477.737C197.804 477.737 189.797 468.631 189.797 455.129H176.923C176.923 474.44 190.425 489.198 214.132 489.198C238.153 489.198 253.696 474.283 253.696 450.576V412.268C253.696 389.66 236.897 374.745 215.074 374.902C192.78 375.059 175.981 390.131 175.981 412.896ZM214.917 440.057C199.374 440.057 188.855 429.224 188.855 412.896C188.855 396.725 199.374 386.206 214.917 386.206C230.303 386.206 240.979 396.568 240.979 412.896C240.979 429.224 230.46 440.057 214.917 440.057Z" fill="#FF3C00"/>
<defs>
<clipPath id="clip0">
<rect width="113.6" height="112.6" fill="white" transform="translate(278 374)"/>
</clipPath>
</defs>
</svg>
