<svg width="560" height="880" viewBox="0 0 560 880" fill="none" xmlns="http://www.w3.org/2000/svg">
<rect width="560" height="880" rx="30" fill="white"/>
<g clip-path="url(#clip0)">
<path d="M277 430.4C307.8 424 326.5 405.1 333.3 374C340 404.9 358.7 423.9 390.6 430.6C359 437.4 340.1 456.2 333.5 486.6C331.4 480.6 329.7 473.7 326.5 467.7C323.2 461.4 319 455.3 314 450.3C309 445.3 302.9 441 296.6 437.7C290.4 434.3 283.3 432.6 277 430.4Z" fill="#FF3C00"/>
</g>
<path d="M176.993 412.739V416.507H189.71V413.367C189.71 395.626 201.014 386.206 216.714 386.206C231.786 386.206 241.991 395.155 241.991 410.227C241.991 425.142 231.158 432.678 213.103 437.231C191.437 442.569 176.522 451.047 176.522 473.498V487H254.865V475.539H189.553V472.242C189.553 456.228 200.229 452.303 219.226 447.279C241.677 441.47 254.865 430.794 254.865 410.384C254.865 388.875 238.537 374.902 216.714 374.902C194.577 374.902 176.993 388.561 176.993 412.739Z" fill="#FF3C00"/>
<defs>
<clipPath id="clip0">
<rect width="113.6" height="112.6" fill="white" transform="translate(277 374)"/>
</clipPath>
</defs>
</svg>
