<svg width="560" height="880" viewBox="0 0 560 880" fill="none" xmlns="http://www.w3.org/2000/svg">
<rect width="560" height="880" rx="30" fill="white"/>
<g clip-path="url(#clip0)">
<path d="M279 430.4C309.8 424 328.5 405.1 335.3 374C342 404.9 360.7 423.9 392.6 430.6C361 437.4 342.1 456.2 335.5 486.6C333.4 480.6 331.7 473.7 328.5 467.7C325.2 461.4 321 455.3 316 450.3C311 445.3 304.9 441 298.6 437.7C292.4 434.3 285.3 432.6 279 430.4Z" fill="#FF3C00"/>
</g>
<path d="M205.625 377.1L169.986 487H183.331L192.28 459.054H238.438L247.387 487H260.732L225.093 377.1H205.625ZM195.734 447.593L214.574 388.875H216.144L234.984 447.593H195.734Z" fill="#FF3C00"/>
<defs>
<clipPath id="clip0">
<rect width="113.6" height="112.6" fill="white" transform="translate(279 374)"/>
</clipPath>
</defs>
</svg>
