<svg width="560" height="880" viewBox="0 0 560 880" fill="none" xmlns="http://www.w3.org/2000/svg">
<rect width="560" height="880" rx="30" fill="white"/>
<g clip-path="url(#clip0)">
<path d="M277 430.4C307.8 424 326.5 405.1 333.3 374C340 404.9 358.7 423.9 390.6 430.6C359 437.4 340.1 456.2 333.5 486.6C331.4 480.6 329.7 473.7 326.5 467.7C323.2 461.4 319 455.3 314 450.3C309 445.3 302.9 441 296.6 437.7C290.4 434.3 283.3 432.6 277 430.4Z" fill="#FF3C00"/>
</g>
<path d="M178.552 377.1V388.718H236.799L201.317 419.176V431.265H216.86C230.833 431.265 241.98 438.644 241.98 453.716C241.98 467.218 232.089 477.737 216.389 477.737C199.433 477.737 188.914 468.631 188.914 451.675V446.494H176.04V451.675C176.04 475.225 191.74 489.198 216.389 489.198C238.526 489.198 254.697 474.911 254.697 453.873C254.697 433.149 240.096 421.217 221.256 421.217H217.488V419.49L254.069 388.404V377.1H178.552Z" fill="#FF3C00"/>
<defs>
<clipPath id="clip0">
<rect width="113.6" height="112.6" fill="white" transform="translate(277 374)"/>
</clipPath>
</defs>
</svg>
