<svg width="560" height="880" viewBox="0 0 560 880" fill="none" xmlns="http://www.w3.org/2000/svg">
<rect width="560" height="880" rx="30" fill="white"/>
<g clip-path="url(#clip0)">
<path d="M278 430.4C308.8 424 327.5 405.1 334.3 374C341 404.9 359.7 423.9 391.6 430.6C360 437.4 341.1 456.2 334.5 486.6C332.4 480.6 330.7 473.7 327.5 467.7C324.2 461.4 320 455.3 315 450.3C310 445.3 303.9 441 297.6 437.7C291.4 434.3 284.3 432.6 278 430.4Z" fill="#FF3C00"/>
</g>
<path d="M255.734 451.047C255.734 428.91 240.19 413.838 220.094 413.838C204.08 413.838 196.23 421.531 192.619 427.811H190.735V412.425C190.735 395.94 200.783 386.206 217.739 386.206C233.91 386.206 241.917 395.312 241.917 408.971H254.791C254.791 389.66 241.446 374.902 217.739 374.902C193.561 374.902 178.018 389.817 178.018 413.524V451.675C178.018 474.283 194.817 489.198 216.797 489.198C239.091 489.041 255.734 473.812 255.734 451.047ZM216.954 424.043C232.497 424.043 243.016 434.876 243.016 451.047C243.016 467.375 232.34 477.737 216.954 477.737C201.411 477.737 190.735 467.375 190.735 451.047C190.735 434.876 201.411 424.043 216.954 424.043Z" fill="#FF3C00"/>
<defs>
<clipPath id="clip0">
<rect width="113.6" height="112.6" fill="white" transform="translate(278 374)"/>
</clipPath>
</defs>
</svg>
