<svg width="560" height="880" viewBox="0 0 560 880" fill="none" xmlns="http://www.w3.org/2000/svg">
<rect width="560" height="880" rx="30" fill="white"/>
<g clip-path="url(#clip0)">
<path d="M283 430.4C313.8 424 332.5 405.1 339.3 374C346 404.9 364.7 423.9 396.6 430.6C365 437.4 346.1 456.2 339.5 486.6C337.4 480.6 335.7 473.7 332.5 467.7C329.2 461.4 325 455.3 320 450.3C315 445.3 308.9 441 302.6 437.7C296.4 434.3 289.3 432.6 283 430.4Z" fill="#FF3C00"/>
</g>
<path d="M215.764 374.902C189.545 374.902 172.746 390.445 172.746 419.49V444.61C172.746 471.3 186.876 486.529 209.484 488.884V499.246C209.484 507.41 214.351 512.277 222.044 512.277H236.802V501.758H226.44C223.614 501.758 222.044 500.188 222.044 497.048V488.884C244.652 486.529 258.782 471.3 258.782 444.61V419.49C258.782 390.445 241.983 374.902 215.764 374.902ZM245.908 445.238C245.908 465.491 234.761 477.737 215.764 477.737C196.61 477.737 185.463 465.491 185.463 445.238V418.862C185.463 398.609 196.61 386.206 215.764 386.206C234.761 386.206 245.908 398.609 245.908 418.862V445.238Z" fill="#FF3C00"/>
<defs>
<clipPath id="clip0">
<rect width="113.6" height="112.6" fill="white" transform="translate(283 374)"/>
</clipPath>
</defs>
</svg>
