<svg width="560" height="880" viewBox="0 0 560 880" fill="none" xmlns="http://www.w3.org/2000/svg">
<rect width="560" height="880" rx="30" fill="white"/>
<g clip-path="url(#clip0)">
<path d="M277 430.4C307.8 424 326.5 405.1 333.3 374C340 404.9 358.7 423.9 390.6 430.6C359 437.4 340.1 456.2 333.5 486.6C331.4 480.6 329.7 473.7 326.5 467.7C323.2 461.4 319 455.3 314 450.3C309 445.3 302.9 441 296.6 437.7C290.4 434.3 283.3 432.6 277 430.4Z" fill="#FF3C00"/>
</g>
<path d="M177.927 404.418C177.927 418.862 188.446 426.241 197.081 429.224V431.108C188.446 432.835 175.886 440.999 175.886 457.798C175.886 476.638 192.214 489.198 215.607 489.198C239.157 489.198 255.328 476.638 255.328 457.798C255.328 440.999 242.925 432.835 234.133 431.108V429.224C242.925 426.241 253.444 418.862 253.444 404.418C253.444 387.305 238.529 374.902 215.607 374.902C192.685 374.902 177.927 387.305 177.927 404.418ZM190.644 405.517C190.644 393.271 201.32 386.206 215.607 386.206C229.894 386.206 240.57 393.271 240.57 405.517C240.57 417.763 229.894 424.671 215.607 424.671C201.32 424.671 190.644 417.763 190.644 405.517ZM188.76 456.856C188.76 443.354 199.593 435.975 215.607 435.975C231.621 435.975 242.611 443.354 242.611 456.856C242.611 470.515 231.621 477.737 215.607 477.737C199.593 477.737 188.76 470.515 188.76 456.856Z" fill="#FF3C00"/>
<defs>
<clipPath id="clip0">
<rect width="113.6" height="112.6" fill="white" transform="translate(277 374)"/>
</clipPath>
</defs>
</svg>
