<svg width="560" height="880" viewBox="0 0 560 880" fill="none" xmlns="http://www.w3.org/2000/svg">
<rect width="560" height="880" rx="30" fill="white"/>
<g clip-path="url(#clip0)">
<path d="M281 430.4C311.8 424 330.5 405.1 337.3 374C344 404.9 362.7 423.9 394.6 430.6C363 437.4 344.1 456.2 337.5 486.6C335.4 480.6 333.7 473.7 330.5 467.7C327.2 461.4 323 455.3 318 450.3C313 445.3 306.9 441 300.6 437.7C294.4 434.3 287.3 432.6 281 430.4Z" fill="#FF3C00"/>
</g>
<path d="M265.796 377.1H247.584L192.32 430.166H190.75V377.1H178.033V487H190.75V447.593L208.962 430.48L248.526 487H264.54L217.911 422.002L265.796 377.1Z" fill="#FF3C00"/>
<defs>
<clipPath id="clip0">
<rect width="113.6" height="112.6" fill="white" transform="translate(281 374)"/>
</clipPath>
</defs>
</svg>
