<svg width="560" height="880" viewBox="0 0 560 880" fill="none" xmlns="http://www.w3.org/2000/svg">
<rect width="560" height="880" rx="30" fill="white"/>
<path d="M333.252 399.934C334.152 397.034 334.752 394.934 335.452 392.934C341.252 378.034 357.652 370.434 372.752 375.634C387.952 380.934 396.452 397.334 390.752 412.634C388.152 419.734 383.452 426.334 378.852 432.534C375.052 437.734 370.252 442.234 365.552 446.634C353.252 458.334 341.152 470.234 333.352 486.534C324.952 468.634 310.652 456.434 297.752 443.134C290.652 435.834 283.852 427.834 278.552 419.134C270.452 405.534 273.552 390.134 284.752 380.834C300.552 367.634 325.152 374.634 331.652 394.234C332.152 395.734 332.552 397.334 333.252 399.934Z" fill="#FF3C00"/>
<path d="M177.432 377.1V436.132H195.487C198.156 430.951 203.494 423.886 215.583 423.886C229.87 423.886 239.133 433.777 239.133 449.791C239.133 467.218 229.556 477.737 212.914 477.737C197.057 477.737 186.381 468.631 186.381 451.204V448.221H173.821V452.146C173.821 474.44 189.678 489.198 213.228 489.198C236.935 489.198 252.164 472.713 252.164 449.477C252.164 426.869 237.249 413.053 218.723 413.053C202.395 413.053 195.33 421.531 192.033 427.811H190.149V388.561H249.338V377.1H177.432Z" fill="#FF3C00"/>
</svg>
