<svg width="560" height="880" viewBox="0 0 560 880" fill="none" xmlns="http://www.w3.org/2000/svg">
<rect width="560" height="880" rx="30" fill="white"/>
<path d="M339.252 399.934C340.152 397.034 340.752 394.934 341.452 392.934C347.252 378.034 363.652 370.434 378.752 375.634C393.952 380.934 402.452 397.334 396.752 412.634C394.152 419.734 389.452 426.334 384.852 432.534C381.052 437.734 376.252 442.234 371.552 446.634C359.252 458.334 347.152 470.234 339.352 486.534C330.952 468.634 316.652 456.434 303.752 443.134C296.652 435.834 289.852 427.834 284.552 419.134C276.452 405.534 279.552 390.134 290.752 380.834C306.552 367.634 331.152 374.634 337.652 394.234C338.152 395.734 338.552 397.334 339.252 399.934Z" fill="#FF3C00"/>
<path d="M212.764 374.902C186.545 374.902 169.746 390.445 169.746 419.49V444.61C169.746 471.3 183.876 486.529 206.484 488.884V499.246C206.484 507.41 211.351 512.277 219.044 512.277H233.802V501.758H223.44C220.614 501.758 219.044 500.188 219.044 497.048V488.884C241.652 486.529 255.782 471.3 255.782 444.61V419.49C255.782 390.445 238.983 374.902 212.764 374.902ZM242.908 445.238C242.908 465.491 231.761 477.737 212.764 477.737C193.61 477.737 182.463 465.491 182.463 445.238V418.862C182.463 398.609 193.61 386.206 212.764 386.206C231.761 386.206 242.908 398.609 242.908 418.862V445.238Z" fill="#FF3C00"/>
</svg>
