<svg width="560" height="880" viewBox="0 0 560 880" fill="none" xmlns="http://www.w3.org/2000/svg">
<rect width="560" height="880" rx="30" fill="white"/>
<path d="M333.252 399.934C334.152 397.034 334.752 394.934 335.452 392.934C341.252 378.034 357.652 370.434 372.752 375.634C387.952 380.934 396.452 397.334 390.752 412.634C388.152 419.734 383.452 426.334 378.852 432.534C375.052 437.734 370.252 442.234 365.552 446.634C353.252 458.334 341.152 470.234 333.352 486.534C324.952 468.634 310.652 456.434 297.752 443.134C290.652 435.834 283.852 427.834 278.552 419.134C270.452 405.534 273.552 390.134 284.752 380.834C300.552 367.634 325.152 374.634 331.652 394.234C332.152 395.734 332.552 397.334 333.252 399.934Z" fill="#FF3C00"/>
<path d="M174.927 404.418C174.927 418.862 185.446 426.241 194.081 429.224V431.108C185.446 432.835 172.886 440.999 172.886 457.798C172.886 476.638 189.214 489.198 212.607 489.198C236.157 489.198 252.328 476.638 252.328 457.798C252.328 440.999 239.925 432.835 231.133 431.108V429.224C239.925 426.241 250.444 418.862 250.444 404.418C250.444 387.305 235.529 374.902 212.607 374.902C189.685 374.902 174.927 387.305 174.927 404.418ZM187.644 405.517C187.644 393.271 198.32 386.206 212.607 386.206C226.894 386.206 237.57 393.271 237.57 405.517C237.57 417.763 226.894 424.671 212.607 424.671C198.32 424.671 187.644 417.763 187.644 405.517ZM185.76 456.856C185.76 443.354 196.593 435.975 212.607 435.975C228.621 435.975 239.611 443.354 239.611 456.856C239.611 470.515 228.621 477.737 212.607 477.737C196.593 477.737 185.76 470.515 185.76 456.856Z" fill="#FF3C00"/>
</svg>
