<svg width="560" height="880" viewBox="0 0 560 880" fill="none" xmlns="http://www.w3.org/2000/svg">
<rect width="560" height="880" rx="30" fill="white"/>
<path d="M335.252 399.934C336.152 397.034 336.752 394.934 337.452 392.934C343.252 378.034 359.652 370.434 374.752 375.634C389.952 380.934 398.452 397.334 392.752 412.634C390.152 419.734 385.452 426.334 380.852 432.534C377.052 437.734 372.252 442.234 367.552 446.634C355.252 458.334 343.152 470.234 335.352 486.534C326.952 468.634 312.652 456.434 299.752 443.134C292.652 435.834 285.852 427.834 280.552 419.134C272.452 405.534 275.552 390.134 286.752 380.834C302.552 367.634 327.152 374.634 333.652 394.234C334.152 395.734 334.552 397.334 335.252 399.934Z" fill="#FF3C00"/>
<path d="M218.759 377.1L168.676 453.716V464.706H226.766V487H239.64V464.706H258.48V453.245H239.64V377.1H218.759ZM224.882 388.718H226.766V453.245H182.335L224.882 388.718Z" fill="#FF3C00"/>
</svg>
