<svg width="560" height="880" viewBox="0 0 560 880" fill="none" xmlns="http://www.w3.org/2000/svg">
<rect width="560" height="880" rx="30" fill="white"/>
<path d="M333.252 399.934C334.152 397.034 334.752 394.934 335.452 392.934C341.252 378.034 357.652 370.434 372.752 375.634C387.952 380.934 396.452 397.334 390.752 412.634C388.152 419.734 383.452 426.334 378.852 432.534C375.052 437.734 370.252 442.234 365.552 446.634C353.252 458.334 341.152 470.234 333.352 486.534C324.952 468.634 310.652 456.434 297.752 443.134C290.652 435.834 283.852 427.834 278.552 419.134C270.452 405.534 273.552 390.134 284.752 380.834C300.552 367.634 325.152 374.634 331.652 394.234C332.152 395.734 332.552 397.334 333.252 399.934Z" fill="#FF3C00"/>
<path d="M175.552 377.1V388.718H233.799L198.317 419.176V431.265H213.86C227.833 431.265 238.98 438.644 238.98 453.716C238.98 467.218 229.089 477.737 213.389 477.737C196.433 477.737 185.914 468.631 185.914 451.675V446.494H173.04V451.675C173.04 475.225 188.74 489.198 213.389 489.198C235.526 489.198 251.697 474.911 251.697 453.873C251.697 433.149 237.096 421.217 218.256 421.217H214.488V419.49L251.069 388.404V377.1H175.552Z" fill="#FF3C00"/>
</svg>
