<svg width="560" height="880" viewBox="0 0 560 880" fill="none" xmlns="http://www.w3.org/2000/svg">
<rect width="560" height="880" rx="30" fill="white"/>
<path d="M368.252 399.934C369.152 397.034 369.752 394.934 370.452 392.934C376.252 378.034 392.652 370.434 407.752 375.634C422.952 380.934 431.452 397.334 425.752 412.634C423.152 419.734 418.452 426.334 413.852 432.534C410.052 437.734 405.252 442.234 400.552 446.634C388.252 458.334 376.152 470.234 368.352 486.534C359.952 468.634 345.652 456.434 332.752 443.134C325.652 435.834 318.852 427.834 313.552 419.134C305.452 405.534 308.552 390.134 319.752 380.834C335.552 367.634 360.152 374.634 366.652 394.234C367.152 395.734 367.552 397.334 368.252 399.934Z" fill="#FF3C00"/>
<path d="M164.805 377.1L134.033 424.671H148.32L170.143 390.916H172.027V487H184.744L184.901 377.1H164.805ZM204.726 419.647V444.453C204.726 473.812 219.798 489.198 244.761 489.198C269.724 489.198 284.796 473.812 284.796 444.453V419.647C284.796 390.602 269.724 374.902 244.761 374.902C219.798 374.902 204.726 390.602 204.726 419.647ZM217.443 418.862C217.443 398.766 226.863 386.206 244.761 386.206C262.659 386.206 272.079 398.609 272.079 418.862V445.238C272.079 465.334 263.287 477.737 244.761 477.737C226.549 477.737 217.443 465.648 217.443 445.238V418.862Z" fill="#FF3C00"/>
</svg>
