<svg width="560" height="880" viewBox="0 0 560 880" fill="none" xmlns="http://www.w3.org/2000/svg">
<rect width="560" height="880" rx="30" fill="white"/>
<path d="M334.252 399.934C335.152 397.034 335.752 394.934 336.452 392.934C342.252 378.034 358.652 370.434 373.752 375.634C388.952 380.934 397.452 397.334 391.752 412.634C389.152 419.734 384.452 426.334 379.852 432.534C376.052 437.734 371.252 442.234 366.552 446.634C354.252 458.334 342.152 470.234 334.352 486.534C325.952 468.634 311.652 456.434 298.752 443.134C291.652 435.834 284.852 427.834 279.552 419.134C271.452 405.534 274.552 390.134 285.752 380.834C301.552 367.634 326.152 374.634 332.652 394.234C333.152 395.734 333.552 397.334 334.252 399.934Z" fill="#FF3C00"/>
<path d="M172.981 412.896C172.981 435.033 188.681 450.105 208.62 450.105C224.634 450.105 232.641 442.412 236.095 436.289H237.979V451.675C237.979 468.16 228.088 477.737 211.132 477.737C194.804 477.737 186.797 468.631 186.797 455.129H173.923C173.923 474.44 187.425 489.198 211.132 489.198C235.153 489.198 250.696 474.283 250.696 450.576V412.268C250.696 389.66 233.897 374.745 212.074 374.902C189.78 375.059 172.981 390.131 172.981 412.896ZM211.917 440.057C196.374 440.057 185.855 429.224 185.855 412.896C185.855 396.725 196.374 386.206 211.917 386.206C227.303 386.206 237.979 396.568 237.979 412.896C237.979 429.224 227.46 440.057 211.917 440.057Z" fill="#FF3C00"/>
</svg>
