<svg width="560" height="880" viewBox="0 0 560 880" fill="none" xmlns="http://www.w3.org/2000/svg">
<rect width="560" height="880" rx="30" fill="white"/>
<path d="M330.252 399.934C331.152 397.034 331.752 394.934 332.452 392.934C338.252 378.034 354.652 370.434 369.752 375.634C384.952 380.934 393.452 397.334 387.752 412.634C385.152 419.734 380.452 426.334 375.852 432.534C372.052 437.734 367.252 442.234 362.552 446.634C350.252 458.334 338.152 470.234 330.352 486.534C321.952 468.634 307.652 456.434 294.752 443.134C287.652 435.834 280.852 427.834 275.552 419.134C267.452 405.534 270.552 390.134 281.752 380.834C297.552 367.634 322.152 374.634 328.652 394.234C329.152 395.734 329.552 397.334 330.252 399.934Z" fill="#FF3C00"/>
<path d="M172.102 377.1V388.718H238.199L191.256 487H205.543L252.8 388.09V377.1H172.102Z" fill="#FF3C00"/>
</svg>
