<svg width="560" height="880" viewBox="0 0 560 880" fill="none" xmlns="http://www.w3.org/2000/svg">
<rect width="560" height="880" rx="30" fill="white"/>
<path d="M337.252 399.934C338.152 397.034 338.752 394.934 339.452 392.934C345.252 378.034 361.652 370.434 376.752 375.634C391.952 380.934 400.452 397.334 394.752 412.634C392.152 419.734 387.452 426.334 382.852 432.534C379.052 437.734 374.252 442.234 369.552 446.634C357.252 458.334 345.152 470.234 337.352 486.534C328.952 468.634 314.652 456.434 301.752 443.134C294.652 435.834 287.852 427.834 282.552 419.134C274.452 405.534 277.552 390.134 288.752 380.834C304.552 367.634 329.152 374.634 335.652 394.234C336.152 395.734 336.552 397.334 337.252 399.934Z" fill="#FF3C00"/>
<path d="M262.796 377.1H244.584L189.32 430.166H187.75V377.1H175.033V487H187.75V447.593L205.962 430.48L245.526 487H261.54L214.911 422.002L262.796 377.1Z" fill="#FF3C00"/>
</svg>
