<svg width="560" height="880" viewBox="0 0 560 880" fill="none" xmlns="http://www.w3.org/2000/svg">
<rect width="560" height="880" rx="30" fill="white"/>
<path d="M334.252 399.934C335.152 397.034 335.752 394.934 336.452 392.934C342.252 378.034 358.652 370.434 373.752 375.634C388.952 380.934 397.452 397.334 391.752 412.634C389.152 419.734 384.452 426.334 379.852 432.534C376.052 437.734 371.252 442.234 366.552 446.634C354.252 458.334 342.152 470.234 334.352 486.534C325.952 468.634 311.652 456.434 298.752 443.134C291.652 435.834 284.852 427.834 279.552 419.134C271.452 405.534 274.552 390.134 285.752 380.834C301.552 367.634 326.152 374.634 332.652 394.234C333.152 395.734 333.552 397.334 334.252 399.934Z" fill="#FF3C00"/>
<path d="M252.734 451.047C252.734 428.91 237.19 413.838 217.094 413.838C201.08 413.838 193.23 421.531 189.619 427.811H187.735V412.425C187.735 395.94 197.783 386.206 214.739 386.206C230.91 386.206 238.917 395.312 238.917 408.971H251.791C251.791 389.66 238.446 374.902 214.739 374.902C190.561 374.902 175.018 389.817 175.018 413.524V451.675C175.018 474.283 191.817 489.198 213.797 489.198C236.091 489.041 252.734 473.812 252.734 451.047ZM213.954 424.043C229.497 424.043 240.016 434.876 240.016 451.047C240.016 467.375 229.34 477.737 213.954 477.737C198.411 477.737 187.735 467.375 187.735 451.047C187.735 434.876 198.411 424.043 213.954 424.043Z" fill="#FF3C00"/>
</svg>
