<svg width="560" height="880" viewBox="0 0 560 880" fill="none" xmlns="http://www.w3.org/2000/svg">
<rect width="560" height="880" rx="30" fill="white"/>
<path d="M336.252 399.934C337.152 397.034 337.752 394.934 338.452 392.934C344.252 378.034 360.652 370.434 375.752 375.634C390.952 380.934 399.452 397.334 393.752 412.634C391.152 419.734 386.452 426.334 381.852 432.534C378.052 437.734 373.252 442.234 368.552 446.634C356.252 458.334 344.152 470.234 336.352 486.534C327.952 468.634 313.652 456.434 300.752 443.134C293.652 435.834 286.852 427.834 281.552 419.134C273.452 405.534 276.552 390.134 287.752 380.834C303.552 367.634 328.152 374.634 334.652 394.234C335.152 395.734 335.552 397.334 336.252 399.934Z" fill="#FF3C00"/>
<path d="M203.625 377.1L167.986 487H181.331L190.28 459.054H236.438L245.387 487H258.732L223.093 377.1H203.625ZM193.734 447.593L212.574 388.875H214.144L232.984 447.593H193.734Z" fill="#FF3C00"/>
</svg>
