<svg width="560" height="880" viewBox="0 0 560 880" fill="none" xmlns="http://www.w3.org/2000/svg">
<rect width="560" height="880" rx="30" fill="white"/>
<path d="M334.252 399.934C335.152 397.034 335.752 394.934 336.452 392.934C342.252 378.034 358.652 370.434 373.752 375.634C388.952 380.934 397.452 397.334 391.752 412.634C389.152 419.734 384.452 426.334 379.852 432.534C376.052 437.734 371.252 442.234 366.552 446.634C354.252 458.334 342.152 470.234 334.352 486.534C325.952 468.634 311.652 456.434 298.752 443.134C291.652 435.834 284.852 427.834 279.552 419.134C271.452 405.534 274.552 390.134 285.752 380.834C301.552 367.634 326.152 374.634 332.652 394.234C333.152 395.734 333.552 397.334 334.252 399.934Z" fill="#FF3C00"/>
<path d="M174.993 412.739V416.507H187.71V413.367C187.71 395.626 199.014 386.206 214.714 386.206C229.786 386.206 239.991 395.155 239.991 410.227C239.991 425.142 229.158 432.678 211.103 437.231C189.437 442.569 174.522 451.047 174.522 473.498V487H252.865V475.539H187.553V472.242C187.553 456.228 198.229 452.303 217.226 447.279C239.677 441.47 252.865 430.794 252.865 410.384C252.865 388.875 236.537 374.902 214.714 374.902C192.577 374.902 174.993 388.561 174.993 412.739Z" fill="#FF3C00"/>
</svg>
