<svg width="560" height="880" viewBox="0 0 560 880" fill="none" xmlns="http://www.w3.org/2000/svg">
<rect width="560" height="880" rx="30" fill="white"/>
<g clip-path="url(#clip0)">
<path d="M334.7 375C339.5 390.5 350.2 402 362.4 412.1C369.3 417.8 376.9 422.7 384.1 428.1C393.3 435 397 444.7 394.4 454.8C391.8 464.8 383.6 471.9 373.1 473.3C363.1 474.6 353.6 469.4 348.1 460.1C345.8 456.3 343.3 452.7 339 450.4C343.1 467.3 353.4 479.2 369.7 487.5C345.8 487.5 323 487.5 302 487.5C307 483.2 313.4 478.2 319.1 472.4C325 466.4 328.6 459 331 450.7C326.1 452.2 324.8 453.5 321.1 460.1C312.2 476 291 478.1 279.6 464.2C270.5 453 272.8 437.2 284.5 428.2C293.6 421.2 302.7 414.1 311.4 406.5C316.3 402.2 320.7 397 324.6 391.7C328.4 386.5 331.4 380.6 334.7 375Z" fill="#282828"/>
</g>
<path d="M251.734 452.047C251.734 429.91 236.19 414.838 216.094 414.838C200.08 414.838 192.23 422.531 188.619 428.811H186.735V413.425C186.735 396.94 196.783 387.206 213.739 387.206C229.91 387.206 237.917 396.312 237.917 409.971H250.791C250.791 390.66 237.446 375.902 213.739 375.902C189.561 375.902 174.018 390.817 174.018 414.524V452.675C174.018 475.283 190.817 490.198 212.797 490.198C235.091 490.041 251.734 474.812 251.734 452.047ZM212.954 425.043C228.497 425.043 239.016 435.876 239.016 452.047C239.016 468.375 228.34 478.737 212.954 478.737C197.411 478.737 186.735 468.375 186.735 452.047C186.735 435.876 197.411 425.043 212.954 425.043Z" fill="#282828"/>
<defs>
<clipPath id="clip0">
<rect width="121.2" height="112.6" fill="white" transform="translate(274 375)"/>
</clipPath>
</defs>
</svg>
