<svg width="560" height="880" viewBox="0 0 560 880" fill="none" xmlns="http://www.w3.org/2000/svg">
<rect width="560" height="880" rx="30" fill="white"/>
<g clip-path="url(#clip0)">
<path d="M335.7 375C340.5 390.5 351.2 402 363.4 412.1C370.3 417.8 377.9 422.7 385.1 428.1C394.3 435 398 444.7 395.4 454.8C392.8 464.8 384.6 471.9 374.1 473.3C364.1 474.6 354.6 469.4 349.1 460.1C346.8 456.3 344.3 452.7 340 450.4C344.1 467.3 354.4 479.2 370.7 487.5C346.8 487.5 324 487.5 303 487.5C308 483.2 314.4 478.2 320.1 472.4C326 466.4 329.6 459 332 450.7C327.1 452.2 325.8 453.5 322.1 460.1C313.2 476 292 478.1 280.6 464.2C271.5 453 273.8 437.2 285.5 428.2C294.6 421.2 303.7 414.1 312.4 406.5C317.3 402.2 321.7 397 325.6 391.7C329.4 386.5 332.4 380.6 335.7 375Z" fill="#282828"/>
</g>
<path d="M201.625 378.1L165.986 488H179.331L188.28 460.054H234.438L243.387 488H256.732L221.093 378.1H201.625ZM191.734 448.593L210.574 389.875H212.144L230.984 448.593H191.734Z" fill="#282828"/>
<defs>
<clipPath id="clip0">
<rect width="121.2" height="112.6" fill="white" transform="translate(275 375)"/>
</clipPath>
</defs>
</svg>
