<svg width="560" height="880" viewBox="0 0 560 880" fill="none" xmlns="http://www.w3.org/2000/svg">
<rect width="560" height="880" rx="30" fill="white"/>
<g clip-path="url(#clip0)">
<path d="M333.7 375C338.5 390.5 349.2 402 361.4 412.1C368.3 417.8 375.9 422.7 383.1 428.1C392.3 435 396 444.7 393.4 454.8C390.8 464.8 382.6 471.9 372.1 473.3C362.1 474.6 352.6 469.4 347.1 460.1C344.8 456.3 342.3 452.7 338 450.4C342.1 467.3 352.4 479.2 368.7 487.5C344.8 487.5 322 487.5 301 487.5C306 483.2 312.4 478.2 318.1 472.4C324 466.4 327.6 459 330 450.7C325.1 452.2 323.8 453.5 320.1 460.1C311.2 476 290 478.1 278.6 464.2C269.5 453 271.8 437.2 283.5 428.2C292.6 421.2 301.7 414.1 310.4 406.5C315.3 402.2 319.7 397 323.6 391.7C327.4 386.5 330.4 380.6 333.7 375Z" fill="#282828"/>
</g>
<path d="M172.993 413.739V417.507H185.71V414.367C185.71 396.626 197.014 387.206 212.714 387.206C227.786 387.206 237.991 396.155 237.991 411.227C237.991 426.142 227.158 433.678 209.103 438.231C187.437 443.569 172.522 452.047 172.522 474.498V488H250.865V476.539H185.553V473.242C185.553 457.228 196.229 453.303 215.226 448.279C237.677 442.47 250.865 431.794 250.865 411.384C250.865 389.875 234.537 375.902 212.714 375.902C190.577 375.902 172.993 389.561 172.993 413.739Z" fill="#282828"/>
<defs>
<clipPath id="clip0">
<rect width="121.2" height="112.6" fill="white" transform="translate(273 375)"/>
</clipPath>
</defs>
</svg>
