<svg width="560" height="880" viewBox="0 0 560 880" fill="none" xmlns="http://www.w3.org/2000/svg">
<rect width="560" height="880" rx="30" fill="white"/>
<g clip-path="url(#clip0)">
<path d="M333.7 375C338.5 390.5 349.2 402 361.4 412.1C368.3 417.8 375.9 422.7 383.1 428.1C392.3 435 396 444.7 393.4 454.8C390.8 464.8 382.6 471.9 372.1 473.3C362.1 474.6 352.6 469.4 347.1 460.1C344.8 456.3 342.3 452.7 338 450.4C342.1 467.3 352.4 479.2 368.7 487.5C344.8 487.5 322 487.5 301 487.5C306 483.2 312.4 478.2 318.1 472.4C324 466.4 327.6 459 330 450.7C325.1 452.2 323.8 453.5 320.1 460.1C311.2 476 290 478.1 278.6 464.2C269.5 453 271.8 437.2 283.5 428.2C292.6 421.2 301.7 414.1 310.4 406.5C315.3 402.2 319.7 397 323.6 391.7C327.4 386.5 330.4 380.6 333.7 375Z" fill="#282828"/>
</g>
<path d="M173.927 405.418C173.927 419.862 184.446 427.241 193.081 430.224V432.108C184.446 433.835 171.886 441.999 171.886 458.798C171.886 477.638 188.214 490.198 211.607 490.198C235.157 490.198 251.328 477.638 251.328 458.798C251.328 441.999 238.925 433.835 230.133 432.108V430.224C238.925 427.241 249.444 419.862 249.444 405.418C249.444 388.305 234.529 375.902 211.607 375.902C188.685 375.902 173.927 388.305 173.927 405.418ZM186.644 406.517C186.644 394.271 197.32 387.206 211.607 387.206C225.894 387.206 236.57 394.271 236.57 406.517C236.57 418.763 225.894 425.671 211.607 425.671C197.32 425.671 186.644 418.763 186.644 406.517ZM184.76 457.856C184.76 444.354 195.593 436.975 211.607 436.975C227.621 436.975 238.611 444.354 238.611 457.856C238.611 471.515 227.621 478.737 211.607 478.737C195.593 478.737 184.76 471.515 184.76 457.856Z" fill="#282828"/>
<defs>
<clipPath id="clip0">
<rect width="121.2" height="112.6" fill="white" transform="translate(273 375)"/>
</clipPath>
</defs>
</svg>
