<svg width="560" height="880" viewBox="0 0 560 880" fill="none" xmlns="http://www.w3.org/2000/svg">
<rect width="560" height="880" rx="30" fill="white"/>
<g clip-path="url(#clip0)">
<path d="M333.7 375C338.5 390.5 349.2 402 361.4 412.1C368.3 417.8 375.9 422.7 383.1 428.1C392.3 435 396 444.7 393.4 454.8C390.8 464.8 382.6 471.9 372.1 473.3C362.1 474.6 352.6 469.4 347.1 460.1C344.8 456.3 342.3 452.7 338 450.4C342.1 467.3 352.4 479.2 368.7 487.5C344.8 487.5 322 487.5 301 487.5C306 483.2 312.4 478.2 318.1 472.4C324 466.4 327.6 459 330 450.7C325.1 452.2 323.8 453.5 320.1 460.1C311.2 476 290 478.1 278.6 464.2C269.5 453 271.8 437.2 283.5 428.2C292.6 421.2 301.7 414.1 310.4 406.5C315.3 402.2 319.7 397 323.6 391.7C327.4 386.5 330.4 380.6 333.7 375Z" fill="#282828"/>
</g>
<path d="M174.552 378.1V389.718H232.799L197.317 420.176V432.265H212.86C226.833 432.265 237.98 439.644 237.98 454.716C237.98 468.218 228.089 478.737 212.389 478.737C195.433 478.737 184.914 469.631 184.914 452.675V447.494H172.04V452.675C172.04 476.225 187.74 490.198 212.389 490.198C234.526 490.198 250.697 475.911 250.697 454.873C250.697 434.149 236.096 422.217 217.256 422.217H213.488V420.49L250.069 389.404V378.1H174.552Z" fill="#282828"/>
<defs>
<clipPath id="clip0">
<rect width="121.2" height="112.6" fill="white" transform="translate(273 375)"/>
</clipPath>
</defs>
</svg>
