<svg width="560" height="880" viewBox="0 0 560 880" fill="none" xmlns="http://www.w3.org/2000/svg">
<rect width="560" height="880" rx="30" fill="white"/>
<g clip-path="url(#clip0)">
<path d="M330.7 375C335.5 390.5 346.2 402 358.4 412.1C365.3 417.8 372.9 422.7 380.1 428.1C389.3 435 393 444.7 390.4 454.8C387.8 464.8 379.6 471.9 369.1 473.3C359.1 474.6 349.6 469.4 344.1 460.1C341.8 456.3 339.3 452.7 335 450.4C339.1 467.3 349.4 479.2 365.7 487.5C341.8 487.5 319 487.5 298 487.5C303 483.2 309.4 478.2 315.1 472.4C321 466.4 324.6 459 327 450.7C322.1 452.2 320.8 453.5 317.1 460.1C308.2 476 287 478.1 275.6 464.2C266.5 453 268.8 437.2 280.5 428.2C289.6 421.2 298.7 414.1 307.4 406.5C312.3 402.2 316.7 397 320.6 391.7C324.4 386.5 327.4 380.6 330.7 375Z" fill="#282828"/>
</g>
<path d="M171.102 378.1V389.718H237.199L190.256 488H204.543L251.8 389.09V378.1H171.102Z" fill="#282828"/>
<defs>
<clipPath id="clip0">
<rect width="121.2" height="112.6" fill="white" transform="translate(270 375)"/>
</clipPath>
</defs>
</svg>
