<svg width="560" height="880" viewBox="0 0 560 880" fill="none" xmlns="http://www.w3.org/2000/svg">
<rect width="560" height="880" rx="30" fill="white"/>
<g clip-path="url(#clip0)">
<path d="M339.7 375C344.5 390.5 355.2 402 367.4 412.1C374.3 417.8 381.9 422.7 389.1 428.1C398.3 435 402 444.7 399.4 454.8C396.8 464.8 388.6 471.9 378.1 473.3C368.1 474.6 358.6 469.4 353.1 460.1C350.8 456.3 348.3 452.7 344 450.4C348.1 467.3 358.4 479.2 374.7 487.5C350.8 487.5 328 487.5 307 487.5C312 483.2 318.4 478.2 324.1 472.4C330 466.4 333.6 459 336 450.7C331.1 452.2 329.8 453.5 326.1 460.1C317.2 476 296 478.1 284.6 464.2C275.5 453 277.8 437.2 289.5 428.2C298.6 421.2 307.7 414.1 316.4 406.5C321.3 402.2 325.7 397 329.6 391.7C333.4 386.5 336.4 380.6 339.7 375Z" fill="#282828"/>
</g>
<path d="M211.764 375.902C185.545 375.902 168.746 391.445 168.746 420.49V445.61C168.746 472.3 182.876 487.529 205.484 489.884V500.246C205.484 508.41 210.351 513.277 218.044 513.277H232.802V502.758H222.44C219.614 502.758 218.044 501.188 218.044 498.048V489.884C240.652 487.529 254.782 472.3 254.782 445.61V420.49C254.782 391.445 237.983 375.902 211.764 375.902ZM241.908 446.238C241.908 466.491 230.761 478.737 211.764 478.737C192.61 478.737 181.463 466.491 181.463 446.238V419.862C181.463 399.609 192.61 387.206 211.764 387.206C230.761 387.206 241.908 399.609 241.908 419.862V446.238Z" fill="#282828"/>
<defs>
<clipPath id="clip0">
<rect width="121.2" height="112.6" fill="white" transform="translate(279 375)"/>
</clipPath>
</defs>
</svg>
