<svg width="560" height="880" viewBox="0 0 560 880" fill="none" xmlns="http://www.w3.org/2000/svg">
<rect width="560" height="880" rx="30" fill="white"/>
<g clip-path="url(#clip0)">
<path d="M334.7 375C339.5 390.5 350.2 402 362.4 412.1C369.3 417.8 376.9 422.7 384.1 428.1C393.3 435 397 444.7 394.4 454.8C391.8 464.8 383.6 471.9 373.1 473.3C363.1 474.6 353.6 469.4 348.1 460.1C345.8 456.3 343.3 452.7 339 450.4C343.1 467.3 353.4 479.2 369.7 487.5C345.8 487.5 323 487.5 302 487.5C307 483.2 313.4 478.2 319.1 472.4C325 466.4 328.6 459 331 450.7C326.1 452.2 324.8 453.5 321.1 460.1C312.2 476 291 478.1 279.6 464.2C270.5 453 272.8 437.2 284.5 428.2C293.6 421.2 302.7 414.1 311.4 406.5C316.3 402.2 320.7 397 324.6 391.7C328.4 386.5 331.4 380.6 334.7 375Z" fill="#282828"/>
</g>
<path d="M171.981 413.896C171.981 436.033 187.681 451.105 207.62 451.105C223.634 451.105 231.641 443.412 235.095 437.289H236.979V452.675C236.979 469.16 227.088 478.737 210.132 478.737C193.804 478.737 185.797 469.631 185.797 456.129H172.923C172.923 475.44 186.425 490.198 210.132 490.198C234.153 490.198 249.696 475.283 249.696 451.576V413.268C249.696 390.66 232.897 375.745 211.074 375.902C188.78 376.059 171.981 391.131 171.981 413.896ZM210.917 441.057C195.374 441.057 184.855 430.224 184.855 413.896C184.855 397.725 195.374 387.206 210.917 387.206C226.303 387.206 236.979 397.568 236.979 413.896C236.979 430.224 226.46 441.057 210.917 441.057Z" fill="#282828"/>
<defs>
<clipPath id="clip0">
<rect width="121.2" height="112.6" fill="white" transform="translate(274 375)"/>
</clipPath>
</defs>
</svg>
