<svg width="560" height="880" viewBox="0 0 560 880" fill="none" xmlns="http://www.w3.org/2000/svg">
<rect width="560" height="880" rx="30" fill="white"/>
<g clip-path="url(#clip0)">
<path d="M334.7 375C339.5 390.5 350.2 402 362.4 412.1C369.3 417.8 376.9 422.7 384.1 428.1C393.3 435 397 444.7 394.4 454.8C391.8 464.8 383.6 471.9 373.1 473.3C363.1 474.6 353.6 469.4 348.1 460.1C345.8 456.3 343.3 452.7 339 450.4C343.1 467.3 353.4 479.2 369.7 487.5C345.8 487.5 323 487.5 302 487.5C307 483.2 313.4 478.2 319.1 472.4C325 466.4 328.6 459 331 450.7C326.1 452.2 324.8 453.5 321.1 460.1C312.2 476 291 478.1 279.6 464.2C270.5 453 272.8 437.2 284.5 428.2C293.6 421.2 302.7 414.1 311.4 406.5C316.3 402.2 320.7 397 324.6 391.7C328.4 386.5 331.4 380.6 334.7 375Z" fill="#282828"/>
</g>
<path d="M216.759 378.1L166.676 454.716V465.706H224.766V488H237.64V465.706H256.48V454.245H237.64V378.1H216.759ZM222.882 389.718H224.766V454.245H180.335L222.882 389.718Z" fill="#282828"/>
<defs>
<clipPath id="clip0">
<rect width="121.2" height="112.6" fill="white" transform="translate(274 375)"/>
</clipPath>
</defs>
</svg>
