<svg width="560" height="880" viewBox="0 0 560 880" fill="none" xmlns="http://www.w3.org/2000/svg">
<rect width="560" height="880" rx="30" fill="white"/>
<g clip-path="url(#clip0)">
<path d="M368.7 375C373.5 390.5 384.2 402 396.4 412.1C403.3 417.8 410.9 422.7 418.1 428.1C427.3 435 431 444.7 428.4 454.8C425.8 464.8 417.6 471.9 407.1 473.3C397.1 474.6 387.6 469.4 382.1 460.1C379.8 456.3 377.3 452.7 373 450.4C377.1 467.3 387.4 479.2 403.7 487.5C379.8 487.5 357 487.5 336 487.5C341 483.2 347.4 478.2 353.1 472.4C359 466.4 362.6 459 365 450.7C360.1 452.2 358.8 453.5 355.1 460.1C346.2 476 325 478.1 313.6 464.2C304.5 453 306.8 437.2 318.5 428.2C327.6 421.2 336.7 414.1 345.4 406.5C350.3 402.2 354.7 397 358.6 391.7C362.4 386.5 365.4 380.6 368.7 375Z" fill="#282828"/>
</g>
<path d="M163.805 378.1L133.033 425.671H147.32L169.143 391.916H171.027V488H183.744L183.901 378.1H163.805ZM203.726 420.647V445.453C203.726 474.812 218.798 490.198 243.761 490.198C268.724 490.198 283.796 474.812 283.796 445.453V420.647C283.796 391.602 268.724 375.902 243.761 375.902C218.798 375.902 203.726 391.602 203.726 420.647ZM216.443 419.862C216.443 399.766 225.863 387.206 243.761 387.206C261.659 387.206 271.079 399.609 271.079 419.862V446.238C271.079 466.334 262.287 478.737 243.761 478.737C225.549 478.737 216.443 466.648 216.443 446.238V419.862Z" fill="#282828"/>
<defs>
<clipPath id="clip0">
<rect width="121.2" height="112.6" fill="white" transform="translate(308 375)"/>
</clipPath>
</defs>
</svg>
