<svg width="560" height="880" viewBox="0 0 560 880" fill="none" xmlns="http://www.w3.org/2000/svg">
<rect width="560" height="880" rx="30" fill="white"/>
<g clip-path="url(#clip0)">
<path d="M333.7 375C338.5 390.5 349.2 402 361.4 412.1C368.3 417.8 375.9 422.7 383.1 428.1C392.3 435 396 444.7 393.4 454.8C390.8 464.8 382.6 471.9 372.1 473.3C362.1 474.6 352.6 469.4 347.1 460.1C344.8 456.3 342.3 452.7 338 450.4C342.1 467.3 352.4 479.2 368.7 487.5C344.8 487.5 322 487.5 301 487.5C306 483.2 312.4 478.2 318.1 472.4C324 466.4 327.6 459 330 450.7C325.1 452.2 323.8 453.5 320.1 460.1C311.2 476 290 478.1 278.6 464.2C269.5 453 271.8 437.2 283.5 428.2C292.6 421.2 301.7 414.1 310.4 406.5C315.3 402.2 319.7 397 323.6 391.7C327.4 386.5 330.4 380.6 333.7 375Z" fill="#282828"/>
</g>
<path d="M176.432 378.1V437.132H194.487C197.156 431.951 202.494 424.886 214.583 424.886C228.87 424.886 238.133 434.777 238.133 450.791C238.133 468.218 228.556 478.737 211.914 478.737C196.057 478.737 185.381 469.631 185.381 452.204V449.221H172.821V453.146C172.821 475.44 188.678 490.198 212.228 490.198C235.935 490.198 251.164 473.713 251.164 450.477C251.164 427.869 236.249 414.053 217.723 414.053C201.395 414.053 194.33 422.531 191.033 428.811H189.149V389.561H248.338V378.1H176.432Z" fill="#282828"/>
<defs>
<clipPath id="clip0">
<rect width="121.2" height="112.6" fill="white" transform="translate(273 375)"/>
</clipPath>
</defs>
</svg>
