<svg width="560" height="880" viewBox="0 0 560 880" fill="none" xmlns="http://www.w3.org/2000/svg">
<rect width="560" height="880" rx="30" fill="white"/>
<g clip-path="url(#clip0)">
<path d="M337.7 375C342.5 390.5 353.2 402 365.4 412.1C372.3 417.8 379.9 422.7 387.1 428.1C396.3 435 400 444.7 397.4 454.8C394.8 464.8 386.6 471.9 376.1 473.3C366.1 474.6 356.6 469.4 351.1 460.1C348.8 456.3 346.3 452.7 342 450.4C346.1 467.3 356.4 479.2 372.7 487.5C348.8 487.5 326 487.5 305 487.5C310 483.2 316.4 478.2 322.1 472.4C328 466.4 331.6 459 334 450.7C329.1 452.2 327.8 453.5 324.1 460.1C315.2 476 294 478.1 282.6 464.2C273.5 453 275.8 437.2 287.5 428.2C296.6 421.2 305.7 414.1 314.4 406.5C319.3 402.2 323.7 397 327.6 391.7C331.4 386.5 334.4 380.6 337.7 375Z" fill="#282828"/>
</g>
<path d="M261.796 378.1H243.584L188.32 431.166H186.75V378.1H174.033V488H186.75V448.593L204.962 431.48L244.526 488H260.54L213.911 423.002L261.796 378.1Z" fill="#282828"/>
<defs>
<clipPath id="clip0">
<rect width="121.2" height="112.6" fill="white" transform="translate(277 375)"/>
</clipPath>
</defs>
</svg>
